<svg id="Layer_1" data-name="Layer 1" xmlns="http://www.w3.org/2000/svg" viewBox="0 0 100 100"><defs><style>.cls-1{fill:#6d6d6d;}.cls-2{fill:#fff;}.cls-3{fill:#f30505;}</style></defs><rect x="40.22" y="29.32" width="15.54" height="65.78"/><path class="cls-1" d="M80.84,47.05c0,9.8-11.22,17.74-25.08,17.74V29.32C69.62,29.32,80.84,37.25,80.84,47.05Z"/><ellipse class="cls-2" cx="49.5" cy="26.85" rx="18.11" ry="10.62"/><path d="M87.11,6.52l-5,4L77,14.69c-1.44,1.16-2.87,2.34-4.31,3.51l-4.19,3.39-4.32,3.49-4.37,3.53c-1.09.89-2.19,1.75-3.24,2.67a3.62,3.62,0,0,1-2.28,1c-4.47.23-8.93.48-13.4.72l-11.54.57c-2.22.12-4.44.29-6.66.41-2.62.15-5.24.26-7.86.38l-1.19.09c.69-.64,1.21-1.16,1.76-1.65l8-7.1c2.57-2.27,5.16-4.51,7.73-6.78s5.1-4.56,7.66-6.83C40.9,10.16,43,8.25,45.2,6.43c.35-.3,1-.25,1.56-.26,3.17,0,6.35-.09,9.52-.11,3.4,0,6.8,0,10.2-.06,2.35,0,4.69-.1,7-.12,2.7,0,5.4,0,8.1,0,1.72,0,3.44-.1,5.16-.15Z"/><path d="M33.08,39.78c-.57-1.48-1.12-3-1.72-4.43-.25-.63,0-.83.57-.85,2.62-.12,5.24-.23,7.86-.38s5.29-.32,7.93-.47l7.64-.42a1.5,1.5,0,0,0,.79-.3q3.18-2.5,6.32-5.05c2-1.68,4.08-3.38,6.14-5.06s3.89-3.14,5.83-4.71c.44-.35.72-.32.94.26q1.71,4.51,3.47,9c.2.5.05.71-.41.91A43.94,43.94,0,0,0,69,34.06a45.55,45.55,0,0,0-8.66,9,1,1,0,0,1-1.19.47,44.81,44.81,0,0,0-11.26-.93A39.63,39.63,0,0,0,38.67,44c-1,.29-2.05.52-3.05.83-.46.14-.64,0-.79-.42C34.26,42.83,33.66,41.31,33.08,39.78Z"/><path class="cls-3" d="M22.14,57.84c.07,4.73.13,9.45.22,14.18,0,.68-.14,1-.86.92-1,0-2.06,0-3.1,0-.44,0-.65-.15-.64-.61s0-.85,0-1.28q-.21-13.47-.41-26.93a2.9,2.9,0,0,1,.57-2.27c.1-.1.05-.47-.06-.64a2.31,2.31,0,0,1,.27-3.36,1.16,1.16,0,0,0,.29-.5A1.84,1.84,0,0,1,20.15,36c.15,0,.43.3.42.45a2.12,2.12,0,0,0,.77,1.83,2.12,2.12,0,0,1,.06,2.83c-.29.4-.21.58,0,1a3.53,3.53,0,0,1,.5,1.61C22,48.38,22.07,53.11,22.14,57.84Z"/></svg>